<svg width="46" height="46" viewBox="0 0 46 46" fill="none" xmlns="http://www.w3.org/2000/svg">
<path d="M23 11.75C23 17.9632 17.9632 23 11.75 23H0.5V11.75C0.5 5.53679 5.53679 0.5 11.75 0.5C17.9632 0.5 23 5.53679 23 11.75Z" fill="#17CF97"/>
<path d="M23 34.25C23 28.0368 28.0368 23 34.25 23H45.5V34.25C45.5 40.4632 40.4632 45.5 34.25 45.5C28.0368 45.5 23 40.4632 23 34.25Z" fill="#17CF97"/>
<path d="M0.5 34.25C0.5 40.4632 5.53679 45.5 11.75 45.5H23V34.25C23 28.0368 17.9632 23 11.75 23C5.53679 23 0.5 28.0368 0.5 34.25Z" fill="#17CF97"/>
<path d="M45.5 11.75C45.5 5.53679 40.4632 0.5 34.25 0.5H23V11.75C23 17.9632 28.0368 23 34.25 23C40.4632 23 45.5 17.9632 45.5 11.75Z" fill="#17CF97"/>
</svg>
